<svg width="196" height="42" viewBox="0 0 196 42" fill="none" xmlns="http://www.w3.org/2000/svg">
<path d="M12.497 14.32C15.3237 14.32 17.937 14.3467 20.337 14.4C21.5904 9.33333 22.817 5.81333 24.017 3.84C24.817 2.69333 25.617 1.86666 26.417 1.36C26.737 1.14667 27.057 1.04 27.377 1.04C27.7237 1.04 27.897 1.56 27.897 2.6C27.897 3.64 27.8037 4.73333 27.617 5.88C27.457 7.02667 27.2437 8.34667 26.977 9.84C26.097 14.7467 25.4304 18.6667 24.977 21.6C24.5504 24.5333 24.337 27.36 24.337 30.08C24.337 30.8267 23.8037 31.2 22.737 31.2C21.057 31.2 19.9104 30.88 19.297 30.24C18.6837 29.5733 18.377 28.3867 18.377 26.68C18.377 24.9467 18.7237 22.2267 19.417 18.52C16.4837 18.3867 14.6304 18.32 13.857 18.32H12.217C11.9237 18.32 11.6304 18.3333 11.337 18.36C10.137 22.9467 9.53703 26.5733 9.53703 29.24C9.53703 30.8133 8.0037 31.6 4.93703 31.6C4.27036 31.6 3.87036 31.2667 3.73703 30.6C3.63036 29.9067 3.57703 28.8 3.57703 27.28C3.57703 25.7333 4.05703 22.9733 5.01703 19C3.39036 19.24 2.2037 19.36 1.45703 19.36C1.11036 19.36 0.937031 19.2267 0.937031 18.96C0.937031 18.3733 1.3637 17.7067 2.21703 16.96C3.09703 16.2133 4.37703 15.6133 6.05703 15.16C7.0437 11.7467 8.03036 8.94667 9.01703 6.76C6.13703 6.81333 4.01703 7.37333 2.65703 8.44C2.23036 8.76 1.8837 9.05333 1.61703 9.32C1.35036 9.56 1.11036 9.68 0.897031 9.68C0.710365 9.68 0.523698 9.52 0.337031 9.2C0.150365 8.88 0.0570313 8.45333 0.0570313 7.92C0.0570313 5.97333 1.69703 4.49333 4.97703 3.48C7.59037 2.68 10.6304 2.26666 14.097 2.24H14.177C14.3637 2.24 14.617 2.34667 14.937 2.56C15.2837 2.77333 15.457 3.12 15.457 3.6C15.457 4.08 15.3637 4.62666 15.177 5.24C15.017 5.82666 14.7904 6.26667 14.497 6.56C14.337 7.81333 13.6704 10.4 12.497 14.32ZM50.4498 27.6C48.3432 30.08 45.8098 31.32 42.8498 31.32C39.9165 31.32 37.7165 30.5733 36.2498 29.08C34.7832 27.56 34.0632 25.68 34.0898 23.44C34.0632 20.2667 35.0632 17.5333 37.0898 15.24C39.1165 12.9467 41.7698 11.8 45.0498 11.8C46.5432 11.8 47.7432 11.9867 48.6498 12.36C50.2232 13 51.0098 13.6 51.0098 14.16C51.0098 14.5867 49.9032 14.8133 47.6898 14.84C45.5032 14.84 43.6632 15.6 42.1698 17.12C40.7032 18.6133 39.9698 20.5067 39.9698 22.8C39.9698 24 40.3165 25.0133 41.0098 25.84C41.7298 26.64 42.7298 27.04 44.0098 27.04C45.3165 27.04 46.3965 26.7733 47.2498 26.24C45.3565 24.96 44.4098 23.1067 44.4098 20.68C44.3832 19.4 44.8365 18.24 45.7698 17.2C46.7298 16.1333 47.9432 15.6 49.4098 15.6C50.9032 15.5733 51.9698 15.9733 52.6098 16.8C53.2498 17.6267 53.5698 18.6933 53.5698 20C53.5698 21.28 53.2632 22.64 52.6498 24.08H52.8898C54.0632 24.0533 55.0765 23.64 55.9298 22.84C56.2498 22.52 56.5165 22.24 56.7298 22C56.9698 21.76 57.2098 21.64 57.4498 21.64C57.8232 21.64 58.0098 22.08 58.0098 22.96C58.0098 24.5867 57.5298 25.8133 56.5698 26.64C55.6098 27.44 54.5432 27.84 53.3698 27.84C52.2232 27.84 51.2498 27.76 50.4498 27.6ZM50.0898 22.96C50.5432 22 50.7698 21.0667 50.7698 20.16C50.7698 19.2533 50.4765 18.8 49.8898 18.8C49.6498 18.8 49.4498 18.9733 49.2898 19.32C49.1298 19.6667 49.0498 20 49.0498 20.32C49.0498 21.3867 49.3965 22.2667 50.0898 22.96ZM68.5686 14.24C69.9553 12.6667 71.7286 11.88 73.8886 11.88C76.9819 11.88 78.9419 13.1333 79.7686 15.64C80.0086 16.3867 80.1286 17.2133 80.1286 18.12C80.1286 20.1467 79.4619 22.1467 78.1286 24.12C76.8219 26.0933 75.2353 27.4267 73.3686 28.12H73.8486C75.7953 28.12 77.7686 27.4 79.7686 25.96C81.0486 25.0533 82.0486 24.12 82.7686 23.16C83.5153 22.1733 84.0753 21.68 84.4486 21.68C84.8219 21.68 85.0086 22.1067 85.0086 22.96C85.0086 24.4533 84.3686 25.96 83.0886 27.48C81.1686 29.6667 78.7153 30.9467 75.7286 31.32C73.5686 31.56 72.0353 31.6 71.1286 31.44C70.2219 31.28 69.5286 31.08 69.0486 30.84C68.0086 30.3067 67.4886 29.5067 67.4886 28.44C67.4886 27.8533 67.6086 27.32 67.8486 26.84C69.9553 26.84 71.5553 26.04 72.6486 24.44C73.7419 22.84 74.2886 20.84 74.2886 18.44C74.2886 17.8533 74.0753 17.3333 73.6486 16.88C73.2219 16.4 72.6486 16.16 71.9286 16.16C71.2353 16.16 70.4753 16.4667 69.6486 17.08C68.8219 17.6933 68.1553 18.4667 67.6486 19.4C67.1686 20.3067 66.7286 21.2133 66.3286 22.12C65.9286 23 65.6086 24.12 65.3686 25.48C64.9419 27.9333 64.4486 31.0267 63.8886 34.76C63.3553 38.52 63.0219 40.5333 62.8886 40.8C62.7553 41.0933 62.5553 41.36 62.2886 41.6C62.0219 41.84 61.7419 41.96 61.4486 41.96C60.9153 41.96 60.4753 41.8 60.1286 41.48C59.1686 40.6533 58.6086 40.0133 58.4486 39.56C58.2886 39.1333 58.2086 38.5733 58.2086 37.88C58.2086 35.2667 58.6486 31.6 59.5286 26.88C60.4086 22.16 61.9286 17.2533 64.0886 12.16C64.4086 11.4133 64.9686 11.04 65.7686 11.04C66.5953 11.04 67.3819 11.76 68.1286 13.2C68.3419 13.5733 68.4886 13.92 68.5686 14.24ZM127.361 21.56C127.814 21.56 128.041 22.1733 128.041 23.4C128.041 24.0667 127.761 24.88 127.201 25.84C126.641 26.7733 125.907 27.64 125.001 28.44C124.121 29.2133 123.134 29.8533 122.041 30.36C120.947 30.8667 119.787 31.12 118.561 31.12C117.361 31.12 116.414 30.7333 115.721 29.96C115.054 29.16 114.721 28.28 114.721 27.32C114.721 26.3333 114.881 25.2267 115.201 24C115.521 22.7733 115.867 21.4933 116.241 20.16C117.254 16.6133 117.774 14.12 117.801 12.68C117.801 12.0667 117.721 11.6 117.561 11.28C117.401 10.9333 117.094 10.76 116.641 10.76C115.841 10.76 114.987 11.24 114.081 12.2C113.174 13.16 112.321 14.3867 111.521 15.88C109.681 19.2933 108.707 22.6267 108.601 25.88C108.654 26.2533 108.707 26.6267 108.761 27C108.814 27.3733 108.841 27.7733 108.841 28.2C108.841 29.0533 108.414 29.84 107.561 30.56C106.734 31.2533 105.801 31.6 104.761 31.6C104.147 31.6 103.694 31.3067 103.401 30.72C103.107 30.1067 102.961 29.36 102.961 28.48C102.961 27.6 103.161 26.4 103.561 24.88C103.961 23.36 104.401 21.7467 104.881 20.04C106.161 15.5333 106.814 12.1733 106.841 9.96C106.841 8.84 106.694 7.96 106.401 7.32C106.134 6.68 105.601 6.36 104.801 6.36C103.361 6.36 101.934 7.38666 100.521 9.44C99.1074 11.4933 97.8408 14.68 96.7208 19C96.4274 20.12 96.2008 21.0933 96.0408 21.92L96.0008 22.68C96.5074 25.1333 96.7608 26.7333 96.7608 27.48C96.7608 29.0267 96.2141 30.0667 95.1208 30.6C94.6141 30.84 94.1208 31.0667 93.6408 31.28C93.1874 31.4933 92.6941 31.6 92.1608 31.6C90.8274 31.6 90.1608 30.3333 90.1608 27.8C90.1608 25.24 90.8674 20.2533 92.2808 12.84C92.7874 10.1733 93.0408 8.68 93.0408 8.36C93.0408 6.2 92.4941 5.12 91.4008 5.12C91.0274 5.12 90.6808 5.22667 90.3608 5.44C90.0674 5.65333 89.7608 5.88 89.4408 6.12C89.1474 6.36 88.8408 6.58667 88.5208 6.8C88.2008 7.01333 87.8274 7.12 87.4008 7.12C87.0008 7.12 86.8008 6.76 86.8008 6.04C86.8008 4.57333 87.4808 3.37333 88.8408 2.44C90.1474 1.48 91.7341 0.999998 93.6008 0.999998C96.0008 0.999998 97.4141 2.12 97.8408 4.36C97.9474 5.02667 98.0274 5.73333 98.0808 6.48C100.054 2.77333 102.547 0.919999 105.561 0.919999C108.841 0.919999 110.721 2.49333 111.201 5.64C111.361 6.54667 111.427 7.52 111.401 8.56V8.88C113.134 6.48 115.187 5.28 117.561 5.28C120.921 5.28 122.601 7.30667 122.601 11.36C122.601 13.12 122.321 15.1867 121.761 17.56C121.227 19.9067 120.827 21.6 120.561 22.64C120.321 23.6533 120.201 24.44 120.201 25C120.201 26.0133 120.547 26.52 121.241 26.52C121.961 26.52 123.654 25.1333 126.321 22.36C126.801 21.8267 127.147 21.56 127.361 21.56ZM155.608 21.56C156.088 21.56 156.328 22.1733 156.328 23.4C156.328 24.0667 156.048 24.88 155.488 25.84C154.928 26.7733 154.194 27.64 153.288 28.44C152.408 29.2133 151.421 29.8533 150.328 30.36C149.234 30.8667 148.168 31.12 147.128 31.12C145.714 31.12 144.768 29.88 144.288 27.4C143.594 28.5467 142.688 29.4933 141.568 30.24C140.448 30.96 138.941 31.32 137.048 31.32C135.181 31.32 133.674 30.7333 132.528 29.56C131.381 28.3867 130.821 26.96 130.848 25.28C130.848 20.7467 132.354 17.1733 135.368 14.56C136.648 13.4667 137.834 12.7467 138.928 12.4C140.048 12.0533 141.221 11.88 142.448 11.88C143.674 11.88 144.674 12.0933 145.448 12.52C145.821 11.7467 146.248 11.36 146.728 11.36C147.661 11.36 148.541 11.7733 149.368 12.6C150.221 13.4 150.648 14.16 150.648 14.88C150.274 15.76 149.728 16.8133 149.008 18.04C148.794 19.2667 148.688 20.9867 148.688 23.2C148.688 25.4133 148.968 26.52 149.528 26.52C150.221 26.52 151.901 25.1333 154.568 22.36C155.048 21.8267 155.394 21.56 155.608 21.56ZM136.728 23.96C136.728 26.0133 137.488 27.04 139.008 27.04C140.634 27.0133 141.981 26.1467 143.048 24.44C143.421 23.8533 143.728 23.1333 143.968 22.28C143.968 19.2933 144.234 16.7333 144.768 14.6C142.608 15.0267 140.728 16.0667 139.128 17.72C137.528 19.3733 136.728 21.4533 136.728 23.96ZM161.089 28.84C160.796 28.12 160.582 27.2933 160.449 26.36C160.316 25.4 160.249 24.0667 160.249 22.36C160.249 20.6533 160.569 18.3467 161.209 15.44H159.409C159.089 15.44 158.929 15.3067 158.929 15.04C158.929 14.4 158.982 13.88 159.089 13.48C159.222 13.0533 159.516 12.5733 159.969 12.04H160.929C161.302 12.04 161.702 12.0267 162.129 12C163.409 7.89333 164.716 5.84 166.049 5.84C167.116 5.86667 167.862 6.54667 168.289 7.88C168.396 8.25333 168.516 8.65333 168.649 9.08L167.009 11.96C168.876 12.0133 170.049 12.04 170.529 12.04C171.036 12.04 171.302 12.0933 171.329 12.2C171.382 12.28 171.409 12.4133 171.409 12.6C171.409 13.08 171.289 13.68 171.049 14.4C170.836 15.12 170.582 15.4667 170.289 15.44L166.289 15.24C165.729 18.4933 165.449 21.1867 165.449 23.32C165.449 25.4533 165.756 26.52 166.369 26.52C166.876 26.52 167.796 26.1067 169.129 25.28C170.462 24.4267 171.422 23.6133 172.009 22.84C172.596 22.0667 173.076 21.68 173.449 21.68C173.822 21.68 174.009 22.1333 174.009 23.04C174.009 23.9467 173.689 24.88 173.049 25.84C172.409 26.7733 171.596 27.64 170.609 28.44C169.649 29.2133 168.569 29.8533 167.369 30.36C166.196 30.8667 165.169 31.12 164.289 31.12C163.409 31.12 162.729 30.92 162.249 30.52C161.796 30.0933 161.409 29.5333 161.089 28.84ZM186.344 26.64C188.424 26.64 190.438 25.8133 192.384 24.16C193.104 23.5467 193.691 22.9867 194.144 22.48C194.598 21.9467 194.944 21.68 195.184 21.68C195.558 21.68 195.744 22.0533 195.744 22.8C195.744 23.5467 195.544 24.3867 195.144 25.32C194.744 26.2267 194.078 27.12 193.144 28C190.851 30.16 187.704 31.24 183.704 31.24C180.531 31.24 178.371 30.0933 177.224 27.8C176.824 27 176.624 25.8533 176.624 24.36C176.624 22.8667 176.918 21.32 177.504 19.72C178.091 18.0933 178.864 16.6933 179.824 15.52C180.811 14.3467 181.944 13.44 183.224 12.8C184.504 12.1333 185.864 11.8 187.304 11.8C188.771 11.8 189.891 12.16 190.664 12.88C191.464 13.6 191.864 14.5333 191.864 15.68C191.864 16.8267 191.571 17.7733 190.984 18.52C190.424 19.24 189.691 19.8533 188.784 20.36C187.878 20.84 186.864 21.28 185.744 21.68C184.651 22.0533 183.571 22.48 182.504 22.96V23.96C182.531 24.92 182.931 25.6 183.704 26C184.478 26.4 185.358 26.6133 186.344 26.64ZM185.664 15.36C184.278 15.36 183.318 16.9733 182.784 20.2C183.344 19.8267 183.864 19.4933 184.344 19.2C184.851 18.9067 185.291 18.6267 185.664 18.36C186.464 17.7733 186.878 17.1067 186.904 16.36C186.904 15.6933 186.491 15.36 185.664 15.36Z" fill="#033234"/>
</svg>
